<svg version="1.2" baseProfile="tiny-ps" xmlns="http://www.w3.org/2000/svg" viewBox="0 0 309 320" width="309" height="320">
	<title>Background</title>
	<style>
		tspan { white-space:pre }
		.shp0 { fill: #fb645c } 
	</style>
	<g id="Background">
		<path id="Path 1" class="shp0" d="M158 0.13C161.02 0.05 168.22 0.46 174 1.05C179.77 1.63 187.87 2.79 192 3.64C196.12 4.48 204.45 6.77 210.5 8.72C216.55 10.68 226.22 14.7 232 17.66C237.77 20.62 246.77 26.07 251.98 29.77C257.2 33.47 265.24 40.1 269.86 44.5C274.48 48.9 281.06 56.1 284.48 60.5C287.89 64.9 292.4 71.2 294.5 74.5C296.59 77.8 300.51 84.77 308.13 99.5L253.31 154.33C222.35 185.3 195.89 210.94 192.5 213.26C189.2 215.52 184.14 218.41 181.25 219.68C178.36 220.96 172.85 222.67 169 223.5C165.15 224.32 159.3 225 156 225C152.7 225 146.51 224.29 142.25 223.41C137.99 222.54 131.35 220.25 127.5 218.33C123.65 216.4 118.09 212.95 115.14 210.66C112.2 208.37 108.78 205.15 107.55 203.5C106.32 201.85 104.64 199.82 103.82 199C103 198.17 100.92 195.02 99.2 192C97.48 188.97 95.12 183.8 93.95 180.5C92.56 176.55 91.64 170.91 91.27 164C90.84 155.95 91.13 151.64 92.5 145.5C93.48 141.1 96.14 133.91 98.39 129.51C100.99 124.47 104.71 119.29 108.5 115.45C111.8 112.1 116.52 107.99 119 106.3C121.47 104.62 126.42 102.01 130 100.51C133.57 99.01 139.42 97.16 143 96.41C146.57 95.65 152.42 95.03 156 95.03C159.57 95.03 165.65 95.69 169.5 96.5C173.35 97.3 180.32 99.85 185 102.16C192.52 105.87 195.27 108.09 224.09 136.5L267.1 93.5L262.81 87C260.46 83.42 254.24 76.22 249.01 70.98C243.78 65.74 236.12 59.15 232 56.34C227.87 53.53 220.9 49.41 216.5 47.18C212.1 44.96 204.45 41.78 199.5 40.12C194.55 38.45 186.22 36.4 181 35.55C175.77 34.7 165.87 34 159 33.99C151.89 33.98 142.83 34.65 138 35.53C133.32 36.39 125.9 38.24 121.5 39.65C117.1 41.05 110.57 43.53 107 45.16C103.42 46.79 97.8 49.76 94.5 51.75C91.2 53.74 85.35 57.93 81.5 61.05C77.65 64.17 71.34 70.05 67.48 74.11C63.63 78.18 57.94 85.32 54.84 90C51.75 94.67 47.88 101.2 46.23 104.5C44.59 107.8 42.12 113.65 40.73 117.5C39.35 121.35 37.31 128.77 36.19 134C35.08 139.22 33.87 147.32 33.5 152C33.14 156.67 33.35 165.45 33.97 171.5C34.59 177.55 35.79 185.2 36.63 188.5C37.47 191.8 38.87 196.75 39.74 199.5C40.61 202.25 42.96 208.1 44.96 212.5C46.96 216.9 51.08 224.32 54.11 229C57.14 233.67 63.65 241.72 68.56 246.89C73.48 252.05 81.77 259.33 87 263.07C92.22 266.81 100.32 271.66 105 273.85C109.67 276.04 117.1 278.98 121.5 280.37C125.9 281.77 133.55 283.66 138.5 284.57C145.35 285.82 151.32 286.11 163.5 285.76C176.71 285.39 181.33 284.83 190 282.58C195.77 281.07 203.87 278.45 208 276.74C212.12 275.04 217.52 272.53 220 271.16C222.47 269.8 227.87 266.41 232 263.64C236.12 260.86 243.78 254.29 249.01 249.04C254.25 243.79 260.47 236.57 267.16 226.5L239.5 198.99L263 175.5L308.03 220.5L302.91 230.5C300.09 236 295.51 243.87 292.74 248C289.96 252.12 285.89 257.75 283.69 260.5C281.49 263.25 275.57 269.55 270.53 274.5C265.49 279.45 257.12 286.53 251.94 290.23C246.75 293.93 237.1 299.64 230.5 302.91C223.9 306.18 214.22 310.2 209 311.84C203.77 313.48 196.12 315.52 192 316.36C187.87 317.21 179.55 318.41 173.5 319.03C167.19 319.68 158.02 319.88 152 319.49C146.22 319.12 137.67 318.16 133 317.36C128.32 316.56 122.02 315.21 119 314.37C115.97 313.52 110.8 311.93 107.5 310.82C104.2 309.71 96.55 306.46 90.5 303.59C84.45 300.72 75.9 295.95 71.5 292.98C67.1 290.02 60.35 284.84 56.5 281.49C52.65 278.13 47.18 272.93 44.34 269.94C41.5 266.95 37.99 263.15 36.55 261.5C35.11 259.85 31.16 254.45 27.77 249.5C24.38 244.55 19.02 235.1 15.87 228.5C12.71 221.9 8.97 212.9 7.55 208.5C6.13 204.1 3.97 195.55 2.74 189.5C0.9 180.43 0.51 175.26 0.53 160C0.55 144.97 0.97 139.43 2.76 130.5C3.98 124.45 6.12 115.9 7.53 111.5C8.94 107.1 13.2 97.2 17 89.5C20.81 81.8 26.75 71.61 30.21 66.86C33.67 62.11 38.67 55.81 41.32 52.86C43.97 49.91 49.6 44.44 53.82 40.69C58.04 36.95 65.77 31.01 71 27.5C76.22 23.99 85.22 18.87 91 16.11C96.77 13.35 105.55 9.77 110.5 8.16C115.45 6.55 123.32 4.46 128 3.51C132.67 2.57 140.1 1.45 144.5 1.04C148.9 0.62 154.97 0.21 158 0.13Z" />
	</g>
</svg>